<svg xmlns="http://www.w3.org/2000/svg" width="582" height="183" fill="none"><path fill="#DBCFE5" d="M580.753 0c.129.049.125.097-.015.226-11.872.08-23.608.08-35.595.08.399.457.618.74.87.99a58688.035 58688.035 0 0 0 33.94 33.717c.292.29.659.506.991.756.037.122.074.243-.027.458-1.742.104-3.345.123-4.948.125-10.376.015-20.752.026-31.128.039 0 0-.009-.014.004-.154.013-12.173.013-24.205.013-36.237h35.895Z"/><path fill="#BEA9CF" d="M544.724 0c.133 12.032.134 24.064.124 36.23a1563.06 1563.06 0 0 1-35.641-.032c.123-.425.342-.73.605-.994 8.646-8.67 17.294-17.336 25.947-25.998 2.63-2.632 5.277-5.248 7.91-7.877.272-.272.503-.585.878-1.027-6.02 0-11.785-.007-17.55.002-6.144.01-12.288.035-18.493.042a8.263 8.263 0 0 1-.183-.034 1.002 1.002 0 0 0-.031-.237C520.372 0 532.482 0 544.724 0Zm.119 36.519c10.375-.14 20.751-.152 31.127-.167 1.603-.002 3.206-.02 4.926-.06.13.14.145.307.007.573-4.504 4.4-8.857 8.702-13.207 13.007-7.595 7.518-15.188 15.038-22.782 22.558-.018-5.847-.042-11.693-.054-17.54-.011-6.081-.011-12.163-.017-18.371Z"/><path fill="#DBCFE5" d="M508.253.38c.066-.068.188-.044.242.092.054 12.036.053 23.936.052 35.835-1.649.024-3.299.067-4.949.068-10.383.006-20.767.003-31.548.003A546705.27 546705.27 0 0 0 508.253.38Zm72.628 72.295c-.281.414-.503.885-.851 1.232a17364.745 17364.745 0 0 1-29.69 29.464c-1.701 1.683-3.485 3.284-5.465 5.142 0-12.028 0-23.816.148-35.728 12.052-.12 23.955-.115 35.858-.11Z"/><path fill="#F8F4FB" d="M508.637 36.318c-.087-11.91-.086-23.81-.078-35.836 6.15-.143 12.294-.168 18.438-.178 5.765-.009 11.53-.002 17.55-.002-.375.442-.606.755-.878 1.027-2.633 2.629-5.28 5.244-7.91 7.877a46051.686 46051.686 0 0 0-25.947 25.997c-.263.264-.482.57-.734.949-.126.12-.24.149-.441.166Zm72.266 36.226c-11.925.126-23.828.121-35.859.108-.128-.008-.147-.115-.14-.169a9827.18 9827.18 0 0 1 22.789-22.611c4.35-4.306 8.703-8.607 13.148-12.943.09 11.806.087 23.645.062 35.615Zm.053-36.906a2.721 2.721 0 0 1-1.005-.625 65946.632 65946.632 0 0 1-33.94-33.718c-.252-.25-.47-.532-.869-.988 11.986 0 23.722 0 35.589-.007.169.408.238.824.238 1.24.005 11.322.002 22.645-.013 34.098Z"/><path fill="#F8F8F8" d="M307.024 103.641c-1.986-6.857-5.607-9.57-12.676-9.614-4.96-.03-9.572.967-13.347 4.435-3.128 2.875-5.005 6.531-5.793 10.575-.767 3.935-1.292 7.98-1.32 11.98-.132 19.106-.059 38.213-.059 57.319v1.822c-1.486.227-2.909.492-4.343.657a94.846 94.846 0 0 1-24.719-.389c-1.23-.18-1.474-.647-1.472-1.789.035-19.904.085-39.809-.022-59.713-.023-4.292-.487-8.604-1.067-12.864-.291-2.139-1.103-4.272-2.026-6.248-1.552-3.327-4.465-5.039-8.034-5.52-7.22-.975-14.484.505-18.68 6.639-2.152 3.148-3.563 6.651-4.027 10.399-.507 4.083-.856 8.213-.876 12.324-.091 18.214-.039 36.428-.039 54.643v1.916c-2.495.298-4.954.636-7.421.878-5.994.589-11.984.454-17.965-.213-.608-.068-1.212-.173-1.817-.267-1.066-.165-2.631.02-3.071-.591-.572-.796-.305-2.225-.306-3.382-.01-34.974-.008-69.947-.008-104.921V69.8c2.091-.336 4.151-.81 6.236-.974 5.85-.461 11.688-.436 17.485.73 1.102.22 1.703.69 1.922 1.708.807 3.749 1.603 7.5 2.389 11.253.144.686.221 1.386.376 2.382.354-.507.582-.805.78-1.122 5.251-8.41 12.805-13.672 22.472-15.799 5.207-1.146 10.521-.888 15.793-.13 5.784.83 11.179 2.636 15.866 6.228 4.109 3.15 6.933 7.235 8.869 11.97.069.17.15.333.24.532 1.49-2.07 2.822-4.194 4.426-6.093 4.335-5.132 9.332-9.402 15.915-11.524 5.406-1.743 10.957-1.927 16.535-1.525 5.203.374 10.259 1.47 14.961 3.859 7.394 3.757 11.734 9.944 14.228 17.599 2.099 6.443 2.816 13.109 2.838 19.823.078 23.284.022 46.569.054 69.853.001 1.178-.23 1.681-1.543 1.863-8.563 1.187-17.119 1.436-25.695.19-1.069-.156-2.145-.264-3.399-.416v-1.699c-.01-20.702.001-41.405-.045-62.107-.009-4.269-.363-8.52-1.615-12.761Zm-215.051 60.31c0 3.756-.035 7.371.024 10.984.016.933-.316 1.313-1.177 1.551-8.953 2.474-17.958 4.654-27.244 5.546-8.203.787-16.404.988-24.607.215-8.56-.807-16.92-2.418-24.312-7.133-8.68-5.536-13.467-13.496-14.325-23.665-.458-5.416-.672-10.879.93-16.2 2.376-7.896 7.47-13.672 14.42-17.924 6.245-3.82 13.148-5.773 20.346-6.869 8.277-1.261 16.568-1.092 24.872-.393.37.031.744.004 1.111.004 1.072-7.784-1.602-15.094-10.222-17.463-5.811-1.597-11.776-1.612-17.726-1.217-6.571.436-12.958 1.88-19.184 4.007-.682.233-1.103.162-1.478-.546-3.33-6.306-5.572-12.893-5.54-20.115.004-.924.2-1.385 1.173-1.699a120.099 120.099 0 0 1 27.968-5.46c5.908-.44 11.806-.451 17.68.317 8.84 1.156 17.077 3.854 24.113 9.553 6.074 4.919 9.52 11.395 11.408 18.8 1.328 5.209 1.776 10.522 1.773 15.885-.009 17.227-.003 34.454-.003 51.822Zm-29.736-29.436v-4.964c-1.847-.219-3.535-.394-5.215-.623-5.776-.786-11.502-.544-17.106 1.075-5.756 1.664-10.161 4.813-11.11 11.186-1.281 8.608 1.862 14.535 10.516 16.904 4.793 1.312 9.728 1.284 14.63.938 2.75-.195 5.467-.832 8.285-1.283v-23.233Zm376.938-65.229c8.507-1.6 16.971-2.37 25.494-1.897 9.491.527 18.575 2.582 26.657 7.907 7.591 5.003 12.033 12.121 14.244 20.752 1.3 5.073 1.786 10.242 1.786 15.465-.001 21.033-.014 42.066.032 63.099.003 1.245-.441 1.697-1.555 2.007-8.226 2.284-16.517 4.327-25.013 5.256-9.357 1.023-18.743 1.254-28.136.178-6.984-.801-13.798-2.153-20.063-5.465-10.16-5.373-15.737-13.844-16.977-25.156-.707-6.456-.556-12.868 2.012-18.957 3.5-8.298 9.836-13.819 17.933-17.528 6.553-3.003 13.497-4.648 20.639-4.99 6.682-.32 13.397.044 20.098.107.411.003.823 0 1.333 0 .164-4.857-.08-9.485-3.492-13.308-2.796-3.133-6.513-4.357-10.521-4.921-11.258-1.586-22.21-.146-32.923 3.417-1.146.381-1.612.162-2.157-.885-3.188-6.12-5.257-12.516-5.315-19.478-.008-1.04.17-1.607 1.304-1.885 4.845-1.187 9.667-2.465 14.62-3.718Zm38.524 79.595v-19.233c-6.997-1.245-13.829-1.692-20.669-.104-3.007.699-5.871 1.758-8.311 3.696-3.909 3.105-4.876 7.376-4.744 12.068.163 5.76 2.904 9.867 8.296 11.881 2.647.989 5.542 1.485 8.37 1.797 5.712.631 11.371.015 17.058-1.372v-8.733Zm-334.516-17.324c.217 5.054.382 9.971.686 14.879.08 1.285.508 2.574.928 3.81 1.406 4.146 4.439 6.2 8.75 6.654 3.416.36 6.781.139 10.135-.521.271-.053.555-.044 1.058-.079.494 2.337 1.177 4.633 1.431 6.974.439 4.048.724 8.12.866 12.189.142 4.09.054 4.239-3.943 4.873-9.202 1.459-18.423 1.969-27.492-.805-11.646-3.562-19.011-11.218-21.394-23.152-.885-4.43-1.391-9.012-1.403-13.526-.107-38.954-.061-77.908-.061-116.862v-1.872c2.884-.337 5.674-.764 8.481-.973 6.85-.509 13.674-.232 20.476.782 1.222.183 1.509.576 1.508 1.749-.032 35.246-.026 70.493-.026 105.88Zm242.379-61.731h11.847v110.25c-8.369 1.74-20.414 1.882-29.721.02V93.02h-14.482c-1.696-7.776-1.8-15.415-.015-23.194h32.371ZM361.783 35.25c.372-4.005.722-7.876 1.153-11.739.039-.346.569-.858.932-.916 9.959-1.601 19.928-1.563 29.887.005.345.054.817.59.877.959 1.119 6.89 1.102 13.825.692 20.766-.113 1.914-.498 3.814-.583 5.728-.052 1.156-.655 1.44-1.586 1.49-5.324.285-10.647.743-15.973.775-4.189.025-8.38-.487-12.572-.744-1.14-.07-1.73-.446-1.802-1.761-.264-4.813-.672-9.618-1.025-14.563Z"/></svg>
